<svg xmlns="http://www.w3.org/2000/svg" version="1.1" xmlns:xlink="http://www.w3.org/1999/xlink" width="200" height="200"><svg xmlns="http://www.w3.org/2000/svg" version="1.1" xmlns:xlink="http://www.w3.org/1999/xlink" viewBox="0 0 200 200"><rect width="200" height="200" fill="url('#gradient')"></rect><defs><linearGradient id="SvgjsLinearGradient1008" gradientTransform="rotate(261 0.5 0.5)"><stop offset="0%" stop-color="#860000"></stop><stop offset="100%" stop-color="#860000"></stop></linearGradient></defs><g><g fill="#ffd600" transform="matrix(5.710037174721189,0,0,5.710037174721189,7.098167376004199,131.23265011159904)" stroke="#d7cd65" stroke-width="0"><path d="M5.39-2.34L5.39-2.34Q6.08-2.34 6.46-2.72Q6.85-3.10 6.84-3.77L6.84-3.77L9.92-3.77Q9.92-2.03 8.68-0.92Q7.43 0.20 5.47 0.20L5.47 0.20Q3.16 0.20 1.84-1.25Q0.51-2.70 0.51-5.25L0.51-5.25L0.51-5.39Q0.51-6.99 1.10-8.22Q1.69-9.44 2.80-10.10Q3.92-10.76 5.44-10.76L5.44-10.76Q7.50-10.76 8.71-9.62Q9.92-8.48 9.92-6.52L9.92-6.52L6.84-6.52Q6.84-7.34 6.44-7.78Q6.04-8.22 5.36-8.22L5.36-8.22Q4.08-8.22 3.87-6.59L3.87-6.59Q3.80-6.07 3.80-5.17L3.80-5.17Q3.80-3.57 4.18-2.96Q4.56-2.34 5.39-2.34ZM21.12-5.36L21.12-5.21Q21.12-2.74 20.01-1.27Q18.91 0.20 17.02 0.20L17.02 0.20Q15.57 0.20 14.63-0.87L14.63-0.87L14.63 4.06L11.34 4.06L11.34-10.57L14.41-10.57L14.51-9.59Q15.46-10.76 17.00-10.76L17.00-10.76Q18.96-10.76 20.04-9.32Q21.12-7.88 21.12-5.36L21.12-5.36ZM17.83-5.06L17.83-5.41Q17.83-8.22 16.19-8.22L16.19-8.22Q15.02-8.22 14.63-7.38L14.63-7.38L14.63-3.22Q15.06-2.34 16.21-2.34L16.21-2.34Q17.78-2.34 17.83-5.06L17.83-5.06ZM25.79-15L25.79-9.43Q26.85-10.76 28.49-10.76L28.49-10.76Q30.23-10.76 31.12-9.73Q32.01-8.69 32.03-6.67L32.03-6.67L32.03 0L28.73 0L28.73-6.59Q28.73-7.43 28.39-7.83Q28.05-8.22 27.23-8.22L27.23-8.22Q26.21-8.22 25.79-7.58L25.79-7.58L25.79 0L22.50 0L22.50-15L25.79-15Z"></path></g></g></svg><style>@media (prefers-color-scheme: light) { :root { filter: none; } }
@media (prefers-color-scheme: dark) { :root { filter: none; } }
</style></svg>